solid OpenSCAD_Model
  facet normal 0 0 -1
    outer loop
      vertex -40 0 -40
      vertex -39.6846 5.01333 -40
      vertex -39.6846 -5.01333 -40
    endloop
  endfacet
  facet normal 0 0 -1
    outer loop
      vertex -39.6846 -5.01333 -40
      vertex -39.6846 5.01333 -40
      vertex -38.7433 9.94759 -40
    endloop
  endfacet
  facet normal 0 0 -1
    outer loop
      vertex -39.6846 -5.01333 -40
      vertex -38.7433 9.94759 -40
      vertex -37.1911 14.725 -40
    endloop
  endfacet
  facet normal 0 0 -1
    outer loop
      vertex -39.6846 -5.01333 -40
      vertex -37.1911 14.725 -40
      vertex -35.0523 19.2701 -40
    endloop
  endfacet
  facet normal 0 0 -1
    outer loop
      vertex -35.3315 13.9887 -40
      vertex -35.0523 19.2701 -40
      vertex -32.3607 23.5114 -40
    endloop
  endfacet
  facet normal 0 0 -1
    outer loop
      vertex -33.2997 18.3066 -40
      vertex -32.3607 23.5114 -40
      vertex -29.9235 26.4575 -40
    endloop
  endfacet
  facet normal 0 0 -1
    outer loop
      vertex -30.5 5 -40
      vertex -29.5 26.4575 -40
      vertex -29.5 5 -40
    endloop
  endfacet
  facet normal 0 0 -1
    outer loop
      vertex -30.5 22.6291 -40
      vertex -29.5 26.4575 -40
      vertex -30.5 5 -40
    endloop
  endfacet
  facet normal 0 0 -1
    outer loop
      vertex -30.7426 22.3358 -40
      vertex -29.5 26.4575 -40
      vertex -30.5 22.6291 -40
    endloop
  endfacet
  facet normal 0 0 -1
    outer loop
      vertex -35.3315 13.9887 -40
      vertex -32.3607 23.5114 -40
      vertex -33.2997 18.3066 -40
    endloop
  endfacet
  facet normal 0 0 -1
    outer loop
      vertex -36.8062 9.45022 -40
      vertex -35.0523 19.2701 -40
      vertex -35.3315 13.9887 -40
    endloop
  endfacet
  facet normal 0 0 -1
    outer loop
      vertex -38 0 -40
      vertex -39.6846 -5.01333 -40
      vertex -37.7004 4.76266 -40
    endloop
  endfacet
  facet normal 0 0 -1
    outer loop
      vertex -39.6846 -5.01333 -40
      vertex -35.0523 19.2701 -40
      vertex -36.8062 9.45022 -40
    endloop
  endfacet
  facet normal 0 0 -1
    outer loop
      vertex -39.6846 -5.01333 -40
      vertex -36.8062 9.45022 -40
      vertex -37.7004 4.76266 -40
    endloop
  endfacet
  facet normal 0 0 -1
    outer loop
      vertex -37.7004 -4.76266 -40
      vertex -39.6846 -5.01333 -40
      vertex -38 0 -40
    endloop
  endfacet
  facet normal 0 0 -1
    outer loop
      vertex -39.6846 -5.01333 -40
      vertex -37.7004 -4.76266 -40
      vertex -36.8062 -9.45022 -40
    endloop
  endfacet
  facet normal 0 0 -1
    outer loop
      vertex -36.8062 -9.45022 -40
      vertex -35.3315 -13.9887 -40
      vertex -39.6846 -5.01333 -40
    endloop
  endfacet
  facet normal 0 0 -1
    outer loop
      vertex -35.3315 -13.9887 -40
      vertex -33.2997 -18.3066 -40
      vertex -39.6846 -5.01333 -40
    endloop
  endfacet
  facet normal 0 0 -1
    outer loop
      vertex -29.5 -5 -40
      vertex -30.5 -22.6291 -40
      vertex -30.5 -5 -40
    endloop
  endfacet
  facet normal 0 0 -1
    outer loop
      vertex -33.2997 -18.3066 -40
      vertex -29.5 -26.4575 -40
      vertex -39.6846 -5.01333 -40
    endloop
  endfacet
  facet normal 0 0 -1
    outer loop
      vertex -30.7426 -22.3358 -40
      vertex -29.5 -26.4575 -40
      vertex -33.2997 -18.3066 -40
    endloop
  endfacet
  facet normal 0 0 -1
    outer loop
      vertex -30.5 -22.6291 -40
      vertex -29.5 -5 -40
      vertex -29.5 -26.4575 -40
    endloop
  endfacet
  facet normal 0 0 -1
    outer loop
      vertex -30.5 -22.6291 -40
      vertex -29.5 -26.4575 -40
      vertex -30.7426 -22.3358 -40
    endloop
  endfacet
  facet normal 0 0 -1
    outer loop
      vertex -39.6846 -5.01333 -40
      vertex -29.5 -26.4575 -40
      vertex -29.9235 -26.4575 -40
    endloop
  endfacet
  facet normal 0 0 -1
    outer loop
      vertex -39.6846 -5.01333 -40
      vertex -29.9235 -26.4575 -40
      vertex -32.3607 -23.5114 -40
    endloop
  endfacet
  facet normal 0 0 -1
    outer loop
      vertex -39.6846 -5.01333 -40
      vertex -32.3607 -23.5114 -40
      vertex -35.0523 -19.2701 -40
    endloop
  endfacet
  facet normal 0 0 -1
    outer loop
      vertex -39.6846 -5.01333 -40
      vertex -35.0523 -19.2701 -40
      vertex -37.1911 -14.725 -40
    endloop
  endfacet
  facet normal 0 0 -1
    outer loop
      vertex -39.6846 -5.01333 -40
      vertex -37.1911 -14.725 -40
      vertex -38.7433 -9.94759 -40
    endloop
  endfacet
  facet normal 0 0 -1
    outer loop
      vertex -33.2997 18.3066 -40
      vertex -29.9235 26.4575 -40
      vertex -29.5 26.4575 -40
    endloop
  endfacet
  facet normal 0 0 -1
    outer loop
      vertex -33.2997 18.3066 -40
      vertex -29.5 26.4575 -40
      vertex -30.7426 22.3358 -40
    endloop
  endfacet
  facet normal -0.998027 0.0627905 0
    outer loop
      vertex -40 0 -40
      vertex -40 0 40
      vertex -39.6846 5.01333 -40
    endloop
  endfacet
  facet normal -0.998027 0.0627905 0
    outer loop
      vertex -39.6846 5.01333 -40
      vertex -40 0 40
      vertex -39.6846 5.01333 40
    endloop
  endfacet
  facet normal -0.998027 -0.0627905 0
    outer loop
      vertex -40 0 -40
      vertex -39.6846 -5.01333 -40
      vertex -40 0 40
    endloop
  endfacet
  facet normal -0.998027 -0.0627905 0
    outer loop
      vertex -40 0 40
      vertex -39.6846 -5.01333 -40
      vertex -39.6846 -5.01333 40
    endloop
  endfacet
  facet normal -0.982287 -0.187381 0
    outer loop
      vertex -39.6846 -5.01333 -40
      vertex -38.7433 -9.94759 -40
      vertex -39.6846 -5.01333 40
    endloop
  endfacet
  facet normal -0.982287 -0.187381 0
    outer loop
      vertex -39.6846 -5.01333 40
      vertex -38.7433 -9.94759 -40
      vertex -38.7433 -9.94759 40
    endloop
  endfacet
  facet normal -0.951057 -0.309017 0
    outer loop
      vertex -38.7433 -9.94759 -40
      vertex -37.1911 -14.725 -40
      vertex -38.7433 -9.94759 40
    endloop
  endfacet
  facet normal -0.951057 -0.309017 0
    outer loop
      vertex -38.7433 -9.94759 40
      vertex -37.1911 -14.725 -40
      vertex -37.1911 -14.725 40
    endloop
  endfacet
  facet normal -0.904827 -0.425779 0
    outer loop
      vertex -37.1911 -14.725 -40
      vertex -35.0523 -19.2701 -40
      vertex -37.1911 -14.725 40
    endloop
  endfacet
  facet normal -0.904827 -0.425779 0
    outer loop
      vertex -37.1911 -14.725 40
      vertex -35.0523 -19.2701 -40
      vertex -35.0523 -19.2701 40
    endloop
  endfacet
  facet normal -0.844328 -0.535827 0
    outer loop
      vertex -35.0523 -19.2701 -40
      vertex -32.3607 -23.5114 -40
      vertex -35.0523 -19.2701 40
    endloop
  endfacet
  facet normal -0.844328 -0.535827 0
    outer loop
      vertex -35.0523 -19.2701 40
      vertex -32.3607 -23.5114 -40
      vertex -32.3607 -23.5114 40
    endloop
  endfacet
  facet normal -0.770513 -0.637424 0
    outer loop
      vertex -32.3607 -23.5114 -40
      vertex -29.9235 -26.4575 -40
      vertex -32.3607 -23.5114 40
    endloop
  endfacet
  facet normal -0.770513 -0.637424 0
    outer loop
      vertex -32.3607 -23.5114 40
      vertex -29.9235 -26.4575 -40
      vertex -29.9235 -26.4575 40
    endloop
  endfacet
  facet normal 0 -1 0
    outer loop
      vertex -29.9235 -26.4575 40
      vertex -29.9235 -26.4575 -40
      vertex -29.5 -26.4575 -40
    endloop
  endfacet
  facet normal 0 -1 0
    outer loop
      vertex -29.5 -26.4575 40
      vertex -29.9235 -26.4575 40
      vertex -29.5 -26.4575 -40
    endloop
  endfacet
  facet normal 1 0 0
    outer loop
      vertex -29.5 -26.4575 40
      vertex -29.5 -26.4575 -40
      vertex -29.5 -5 -40
    endloop
  endfacet
  facet normal 1 0 0
    outer loop
      vertex -29.5 -5 40
      vertex -29.5 -26.4575 40
      vertex -29.5 -5 -40
    endloop
  endfacet
  facet normal 0 1 0
    outer loop
      vertex -29.5 -5 40
      vertex -29.5 -5 -40
      vertex -30.5 -5 40
    endloop
  endfacet
  facet normal 0 1 0
    outer loop
      vertex -30.5 -5 40
      vertex -29.5 -5 -40
      vertex -30.5 -5 -40
    endloop
  endfacet
  facet normal -1 0 0
    outer loop
      vertex -30.5 -22.6291 -40
      vertex -30.5 -22.6291 40
      vertex -30.5 -5 -40
    endloop
  endfacet
  facet normal -1 0 0
    outer loop
      vertex -30.5 -5 -40
      vertex -30.5 -22.6291 40
      vertex -30.5 -5 40
    endloop
  endfacet
  facet normal 0.770513 0.637424 0
    outer loop
      vertex -30.7426 -22.3358 40
      vertex -30.5 -22.6291 40
      vertex -30.5 -22.6291 -40
    endloop
  endfacet
  facet normal 0.770513 0.637424 0
    outer loop
      vertex -30.7426 -22.3358 -40
      vertex -30.7426 -22.3358 40
      vertex -30.5 -22.6291 -40
    endloop
  endfacet
  facet normal 0.844328 0.535827 0
    outer loop
      vertex -33.2997 -18.3066 40
      vertex -30.7426 -22.3358 40
      vertex -30.7426 -22.3358 -40
    endloop
  endfacet
  facet normal 0.844328 0.535827 0
    outer loop
      vertex -33.2997 -18.3066 -40
      vertex -33.2997 -18.3066 40
      vertex -30.7426 -22.3358 -40
    endloop
  endfacet
  facet normal 0.904827 0.425779 0
    outer loop
      vertex -35.3315 -13.9887 40
      vertex -33.2997 -18.3066 40
      vertex -33.2997 -18.3066 -40
    endloop
  endfacet
  facet normal 0.904827 0.425779 0
    outer loop
      vertex -35.3315 -13.9887 -40
      vertex -35.3315 -13.9887 40
      vertex -33.2997 -18.3066 -40
    endloop
  endfacet
  facet normal 0.951056 0.309017 0
    outer loop
      vertex -36.8062 -9.45022 40
      vertex -35.3315 -13.9887 40
      vertex -35.3315 -13.9887 -40
    endloop
  endfacet
  facet normal 0.951056 0.309017 0
    outer loop
      vertex -36.8062 -9.45022 -40
      vertex -36.8062 -9.45022 40
      vertex -35.3315 -13.9887 -40
    endloop
  endfacet
  facet normal 0.982287 0.187381 0
    outer loop
      vertex -37.7004 -4.76266 40
      vertex -36.8062 -9.45022 40
      vertex -36.8062 -9.45022 -40
    endloop
  endfacet
  facet normal 0.982287 0.187381 0
    outer loop
      vertex -37.7004 -4.76266 -40
      vertex -37.7004 -4.76266 40
      vertex -36.8062 -9.45022 -40
    endloop
  endfacet
  facet normal 0.998027 0.0627904 0
    outer loop
      vertex -38 0 40
      vertex -37.7004 -4.76266 40
      vertex -37.7004 -4.76266 -40
    endloop
  endfacet
  facet normal 0.998027 0.0627904 0
    outer loop
      vertex -38 0 -40
      vertex -38 0 40
      vertex -37.7004 -4.76266 -40
    endloop
  endfacet
  facet normal 0.998027 -0.0627904 0
    outer loop
      vertex -37.7004 4.76266 -40
      vertex -37.7004 4.76266 40
      vertex -38 0 40
    endloop
  endfacet
  facet normal 0.998027 -0.0627904 0
    outer loop
      vertex -38 0 -40
      vertex -37.7004 4.76266 -40
      vertex -38 0 40
    endloop
  endfacet
  facet normal 0.982287 -0.187381 0
    outer loop
      vertex -36.8062 9.45022 -40
      vertex -36.8062 9.45022 40
      vertex -37.7004 4.76266 40
    endloop
  endfacet
  facet normal 0.982287 -0.187381 0
    outer loop
      vertex -37.7004 4.76266 -40
      vertex -36.8062 9.45022 -40
      vertex -37.7004 4.76266 40
    endloop
  endfacet
  facet normal 0.951056 -0.309017 0
    outer loop
      vertex -35.3315 13.9887 -40
      vertex -35.3315 13.9887 40
      vertex -36.8062 9.45022 40
    endloop
  endfacet
  facet normal 0.951056 -0.309017 0
    outer loop
      vertex -36.8062 9.45022 -40
      vertex -35.3315 13.9887 -40
      vertex -36.8062 9.45022 40
    endloop
  endfacet
  facet normal 0.904827 -0.425779 0
    outer loop
      vertex -33.2997 18.3066 -40
      vertex -33.2997 18.3066 40
      vertex -35.3315 13.9887 40
    endloop
  endfacet
  facet normal 0.904827 -0.425779 0
    outer loop
      vertex -35.3315 13.9887 -40
      vertex -33.2997 18.3066 -40
      vertex -35.3315 13.9887 40
    endloop
  endfacet
  facet normal 0.844328 -0.535827 0
    outer loop
      vertex -30.7426 22.3358 -40
      vertex -30.7426 22.3358 40
      vertex -33.2997 18.3066 40
    endloop
  endfacet
  facet normal 0.844328 -0.535827 0
    outer loop
      vertex -33.2997 18.3066 -40
      vertex -30.7426 22.3358 -40
      vertex -33.2997 18.3066 40
    endloop
  endfacet
  facet normal 0.770513 -0.637424 0
    outer loop
      vertex -30.5 22.6291 -40
      vertex -30.5 22.6291 40
      vertex -30.7426 22.3358 40
    endloop
  endfacet
  facet normal 0.770513 -0.637424 0
    outer loop
      vertex -30.7426 22.3358 -40
      vertex -30.5 22.6291 -40
      vertex -30.7426 22.3358 40
    endloop
  endfacet
  facet normal -1 0 0
    outer loop
      vertex -30.5 5 -40
      vertex -30.5 5 40
      vertex -30.5 22.6291 -40
    endloop
  endfacet
  facet normal -1 0 0
    outer loop
      vertex -30.5 22.6291 -40
      vertex -30.5 5 40
      vertex -30.5 22.6291 40
    endloop
  endfacet
  facet normal 0 -1 0
    outer loop
      vertex -29.5 5 -40
      vertex -29.5 5 40
      vertex -30.5 5 40
    endloop
  endfacet
  facet normal 0 -1 0
    outer loop
      vertex -30.5 5 -40
      vertex -29.5 5 -40
      vertex -30.5 5 40
    endloop
  endfacet
  facet normal 1 0 0
    outer loop
      vertex -29.5 5 40
      vertex -29.5 5 -40
      vertex -29.5 26.4575 -40
    endloop
  endfacet
  facet normal 1 0 0
    outer loop
      vertex -29.5 26.4575 40
      vertex -29.5 5 40
      vertex -29.5 26.4575 -40
    endloop
  endfacet
  facet normal 0 1 0
    outer loop
      vertex -29.9235 26.4575 -40
      vertex -29.9235 26.4575 40
      vertex -29.5 26.4575 -40
    endloop
  endfacet
  facet normal 0 1 0
    outer loop
      vertex -29.5 26.4575 -40
      vertex -29.9235 26.4575 40
      vertex -29.5 26.4575 40
    endloop
  endfacet
  facet normal -0.770513 0.637424 0
    outer loop
      vertex -32.3607 23.5114 -40
      vertex -32.3607 23.5114 40
      vertex -29.9235 26.4575 -40
    endloop
  endfacet
  facet normal -0.770513 0.637424 0
    outer loop
      vertex -29.9235 26.4575 -40
      vertex -32.3607 23.5114 40
      vertex -29.9235 26.4575 40
    endloop
  endfacet
  facet normal -0.844328 0.535827 0
    outer loop
      vertex -35.0523 19.2701 -40
      vertex -35.0523 19.2701 40
      vertex -32.3607 23.5114 -40
    endloop
  endfacet
  facet normal -0.844328 0.535827 0
    outer loop
      vertex -32.3607 23.5114 -40
      vertex -35.0523 19.2701 40
      vertex -32.3607 23.5114 40
    endloop
  endfacet
  facet normal -0.904827 0.425779 0
    outer loop
      vertex -37.1911 14.725 -40
      vertex -37.1911 14.725 40
      vertex -35.0523 19.2701 -40
    endloop
  endfacet
  facet normal -0.904827 0.425779 0
    outer loop
      vertex -35.0523 19.2701 -40
      vertex -37.1911 14.725 40
      vertex -35.0523 19.2701 40
    endloop
  endfacet
  facet normal -0.951057 0.309017 0
    outer loop
      vertex -38.7433 9.94759 -40
      vertex -38.7433 9.94759 40
      vertex -37.1911 14.725 -40
    endloop
  endfacet
  facet normal -0.951057 0.309017 0
    outer loop
      vertex -37.1911 14.725 -40
      vertex -38.7433 9.94759 40
      vertex -37.1911 14.725 40
    endloop
  endfacet
  facet normal -0.982287 0.187381 0
    outer loop
      vertex -39.6846 5.01333 -40
      vertex -39.6846 5.01333 40
      vertex -38.7433 9.94759 -40
    endloop
  endfacet
  facet normal -0.982287 0.187381 0
    outer loop
      vertex -38.7433 9.94759 -40
      vertex -39.6846 5.01333 40
      vertex -38.7433 9.94759 40
    endloop
  endfacet
  facet normal 0 0 1
    outer loop
      vertex -39.6846 5.01333 40
      vertex -40 0 40
      vertex -39.6846 -5.01333 40
    endloop
  endfacet
  facet normal 0 0 1
    outer loop
      vertex -37.1911 -14.725 40
      vertex -39.6846 5.01333 40
      vertex -38.7433 -9.94759 40
    endloop
  endfacet
  facet normal 0 0 1
    outer loop
      vertex -38.7433 -9.94759 40
      vertex -39.6846 5.01333 40
      vertex -39.6846 -5.01333 40
    endloop
  endfacet
  facet normal 0 0 1
    outer loop
      vertex -35.0523 -19.2701 40
      vertex -39.6846 5.01333 40
      vertex -37.1911 -14.725 40
    endloop
  endfacet
  facet normal 0 0 1
    outer loop
      vertex -36.8062 -9.45022 40
      vertex -39.6846 5.01333 40
      vertex -35.0523 -19.2701 40
    endloop
  endfacet
  facet normal 0 0 1
    outer loop
      vertex -33.2997 -18.3066 40
      vertex -35.3315 -13.9887 40
      vertex -32.3607 -23.5114 40
    endloop
  endfacet
  facet normal 0 0 1
    outer loop
      vertex -29.5 -5 40
      vertex -30.5 -5 40
      vertex -29.5 -26.4575 40
    endloop
  endfacet
  facet normal 0 0 1
    outer loop
      vertex -30.5 -5 40
      vertex -30.5 -22.6291 40
      vertex -29.5 -26.4575 40
    endloop
  endfacet
  facet normal 0 0 1
    outer loop
      vertex -30.5 -22.6291 40
      vertex -30.7426 -22.3358 40
      vertex -29.5 -26.4575 40
    endloop
  endfacet
  facet normal 0 0 1
    outer loop
      vertex -29.9235 -26.4575 40
      vertex -33.2997 -18.3066 40
      vertex -32.3607 -23.5114 40
    endloop
  endfacet
  facet normal 0 0 1
    outer loop
      vertex -32.3607 -23.5114 40
      vertex -35.3315 -13.9887 40
      vertex -35.0523 -19.2701 40
    endloop
  endfacet
  facet normal 0 0 1
    outer loop
      vertex -35.3315 -13.9887 40
      vertex -36.8062 -9.45022 40
      vertex -35.0523 -19.2701 40
    endloop
  endfacet
  facet normal 0 0 1
    outer loop
      vertex -37.7004 -4.76266 40
      vertex -39.6846 5.01333 40
      vertex -36.8062 -9.45022 40
    endloop
  endfacet
  facet normal 0 0 1
    outer loop
      vertex -36.8062 9.45022 40
      vertex -39.6846 5.01333 40
      vertex -37.7004 4.76266 40
    endloop
  endfacet
  facet normal 0 0 1
    outer loop
      vertex -35.3315 13.9887 40
      vertex -39.6846 5.01333 40
      vertex -36.8062 9.45022 40
    endloop
  endfacet
  facet normal 0 0 1
    outer loop
      vertex -33.2997 18.3066 40
      vertex -39.6846 5.01333 40
      vertex -35.3315 13.9887 40
    endloop
  endfacet
  facet normal 0 0 1
    outer loop
      vertex -29.5 26.4575 40
      vertex -39.6846 5.01333 40
      vertex -33.2997 18.3066 40
    endloop
  endfacet
  facet normal 0 0 1
    outer loop
      vertex -30.5 5 40
      vertex -29.5 5 40
      vertex -30.5 22.6291 40
    endloop
  endfacet
  facet normal 0 0 1
    outer loop
      vertex -29.5 26.4575 40
      vertex -33.2997 18.3066 40
      vertex -30.7426 22.3358 40
    endloop
  endfacet
  facet normal 0 0 1
    outer loop
      vertex -29.5 26.4575 40
      vertex -30.7426 22.3358 40
      vertex -30.5 22.6291 40
    endloop
  endfacet
  facet normal 0 0 1
    outer loop
      vertex -29.5 26.4575 40
      vertex -30.5 22.6291 40
      vertex -29.5 5 40
    endloop
  endfacet
  facet normal 0 0 1
    outer loop
      vertex -29.9235 26.4575 40
      vertex -39.6846 5.01333 40
      vertex -29.5 26.4575 40
    endloop
  endfacet
  facet normal 0 0 1
    outer loop
      vertex -32.3607 23.5114 40
      vertex -39.6846 5.01333 40
      vertex -29.9235 26.4575 40
    endloop
  endfacet
  facet normal 0 0 1
    outer loop
      vertex -35.0523 19.2701 40
      vertex -39.6846 5.01333 40
      vertex -32.3607 23.5114 40
    endloop
  endfacet
  facet normal 0 0 1
    outer loop
      vertex -37.1911 14.725 40
      vertex -39.6846 5.01333 40
      vertex -35.0523 19.2701 40
    endloop
  endfacet
  facet normal 0 0 1
    outer loop
      vertex -38.7433 9.94759 40
      vertex -39.6846 5.01333 40
      vertex -37.1911 14.725 40
    endloop
  endfacet
  facet normal 0 0 1
    outer loop
      vertex -38 0 40
      vertex -37.7004 4.76266 40
      vertex -39.6846 5.01333 40
    endloop
  endfacet
  facet normal 0 0 1
    outer loop
      vertex -30.7426 -22.3358 40
      vertex -29.9235 -26.4575 40
      vertex -29.5 -26.4575 40
    endloop
  endfacet
  facet normal 0 0 1
    outer loop
      vertex -30.7426 -22.3358 40
      vertex -33.2997 -18.3066 40
      vertex -29.9235 -26.4575 40
    endloop
  endfacet
  facet normal 0 0 1
    outer loop
      vertex -37.7004 -4.76266 40
      vertex -38 0 40
      vertex -39.6846 5.01333 40
    endloop
  endfacet
endsolid OpenSCAD_Model
