solid OpenSCAD_Model
  facet normal 0 0 -1
    outer loop
      vertex -30 0 -75
      vertex -29.7634 3.76 -75
      vertex -29.7634 -3.76 -75
    endloop
  endfacet
  facet normal 0 0 -1
    outer loop
      vertex -29.7634 -3.76 -75
      vertex -29.7634 3.76 -75
      vertex -29.0575 7.4607 -75
    endloop
  endfacet
  facet normal 0 0 -1
    outer loop
      vertex -29.7634 -3.76 -75
      vertex -29.0575 7.4607 -75
      vertex -27.8933 11.0437 -75
    endloop
  endfacet
  facet normal 0 0 -1
    outer loop
      vertex -29.7634 -3.76 -75
      vertex -27.8933 11.0437 -75
      vertex -26.2892 14.4526 -75
    endloop
  endfacet
  facet normal 0 0 -1
    outer loop
      vertex -29.7634 -3.76 -75
      vertex -26.2892 14.4526 -75
      vertex -24.9371 16.5831 -75
    endloop
  endfacet
  facet normal 0 0 -1
    outer loop
      vertex -27.1203 6.96332 -75
      vertex -24.9371 16.5831 -75
      vertex -24.5 16.5831 -75
    endloop
  endfacet
  facet normal 0 0 -1
    outer loop
      vertex -25.5 2.5 -75
      vertex -24.5 16.5831 -75
      vertex -24.5 2.5 -75
    endloop
  endfacet
  facet normal 0 0 -1
    outer loop
      vertex -25.5 11.4417 -75
      vertex -24.5 16.5831 -75
      vertex -25.5 2.5 -75
    endloop
  endfacet
  facet normal 0 0 -1
    outer loop
      vertex -26.0337 10.3075 -75
      vertex -24.5 16.5831 -75
      vertex -25.5 11.4417 -75
    endloop
  endfacet
  facet normal 0 0 -1
    outer loop
      vertex -29.7634 -3.76 -75
      vertex -24.9371 16.5831 -75
      vertex -27.1203 6.96332 -75
    endloop
  endfacet
  facet normal 0 0 -1
    outer loop
      vertex -27.7792 3.50933 -75
      vertex -29.7634 -3.76 -75
      vertex -27.1203 6.96332 -75
    endloop
  endfacet
  facet normal 0 0 -1
    outer loop
      vertex -28 0 -75
      vertex -29.7634 -3.76 -75
      vertex -27.7792 3.50933 -75
    endloop
  endfacet
  facet normal 0 0 -1
    outer loop
      vertex -27.7792 -3.50933 -75
      vertex -29.7634 -3.76 -75
      vertex -28 0 -75
    endloop
  endfacet
  facet normal 0 0 -1
    outer loop
      vertex -29.7634 -3.76 -75
      vertex -27.7792 -3.50933 -75
      vertex -27.1203 -6.96332 -75
    endloop
  endfacet
  facet normal 0 0 -1
    outer loop
      vertex -24.5 -2.5 -75
      vertex -25.5 -11.4417 -75
      vertex -25.5 -2.5 -75
    endloop
  endfacet
  facet normal 0 0 -1
    outer loop
      vertex -27.1203 -6.96332 -75
      vertex -26.0337 -10.3075 -75
      vertex -29.7634 -3.76 -75
    endloop
  endfacet
  facet normal 0 0 -1
    outer loop
      vertex -26.0337 -10.3075 -75
      vertex -25.5 -11.4417 -75
      vertex -29.7634 -3.76 -75
    endloop
  endfacet
  facet normal 0 0 -1
    outer loop
      vertex -25.5 -11.4417 -75
      vertex -24.5 -2.5 -75
      vertex -24.5 -16.5831 -75
    endloop
  endfacet
  facet normal 0 0 -1
    outer loop
      vertex -25.5 -11.4417 -75
      vertex -24.5 -16.5831 -75
      vertex -29.7634 -3.76 -75
    endloop
  endfacet
  facet normal 0 0 -1
    outer loop
      vertex -29.7634 -3.76 -75
      vertex -24.5 -16.5831 -75
      vertex -24.9371 -16.5831 -75
    endloop
  endfacet
  facet normal 0 0 -1
    outer loop
      vertex -29.7634 -3.76 -75
      vertex -24.9371 -16.5831 -75
      vertex -26.2892 -14.4526 -75
    endloop
  endfacet
  facet normal 0 0 -1
    outer loop
      vertex -29.7634 -3.76 -75
      vertex -26.2892 -14.4526 -75
      vertex -27.8933 -11.0437 -75
    endloop
  endfacet
  facet normal 0 0 -1
    outer loop
      vertex -29.7634 -3.76 -75
      vertex -27.8933 -11.0437 -75
      vertex -29.0575 -7.4607 -75
    endloop
  endfacet
  facet normal 0 0 -1
    outer loop
      vertex -27.1203 6.96332 -75
      vertex -24.5 16.5831 -75
      vertex -26.0337 10.3075 -75
    endloop
  endfacet
  facet normal -0.998027 0.0627905 0
    outer loop
      vertex -30 0 -75
      vertex -30 0 75
      vertex -29.7634 3.76 -75
    endloop
  endfacet
  facet normal -0.998027 0.0627905 0
    outer loop
      vertex -29.7634 3.76 -75
      vertex -30 0 75
      vertex -29.7634 3.76 75
    endloop
  endfacet
  facet normal -0.998027 -0.0627905 0
    outer loop
      vertex -30 0 -75
      vertex -29.7634 -3.76 -75
      vertex -30 0 75
    endloop
  endfacet
  facet normal -0.998027 -0.0627905 0
    outer loop
      vertex -30 0 75
      vertex -29.7634 -3.76 -75
      vertex -29.7634 -3.76 75
    endloop
  endfacet
  facet normal -0.982287 -0.187381 0
    outer loop
      vertex -29.7634 -3.76 -75
      vertex -29.0575 -7.4607 -75
      vertex -29.7634 -3.76 75
    endloop
  endfacet
  facet normal -0.982287 -0.187381 0
    outer loop
      vertex -29.7634 -3.76 75
      vertex -29.0575 -7.4607 -75
      vertex -29.0575 -7.4607 75
    endloop
  endfacet
  facet normal -0.951057 -0.309017 0
    outer loop
      vertex -29.0575 -7.4607 -75
      vertex -27.8933 -11.0437 -75
      vertex -29.0575 -7.4607 75
    endloop
  endfacet
  facet normal -0.951057 -0.309017 0
    outer loop
      vertex -29.0575 -7.4607 75
      vertex -27.8933 -11.0437 -75
      vertex -27.8933 -11.0437 75
    endloop
  endfacet
  facet normal -0.904827 -0.42578 0
    outer loop
      vertex -27.8933 -11.0437 -75
      vertex -26.2892 -14.4526 -75
      vertex -27.8933 -11.0437 75
    endloop
  endfacet
  facet normal -0.904827 -0.42578 0
    outer loop
      vertex -27.8933 -11.0437 75
      vertex -26.2892 -14.4526 -75
      vertex -26.2892 -14.4526 75
    endloop
  endfacet
  facet normal -0.844328 -0.535827 0
    outer loop
      vertex -26.2892 -14.4526 -75
      vertex -24.9371 -16.5831 -75
      vertex -26.2892 -14.4526 75
    endloop
  endfacet
  facet normal -0.844328 -0.535827 0
    outer loop
      vertex -26.2892 -14.4526 75
      vertex -24.9371 -16.5831 -75
      vertex -24.9371 -16.5831 75
    endloop
  endfacet
  facet normal 0 -1 0
    outer loop
      vertex -24.9371 -16.5831 75
      vertex -24.9371 -16.5831 -75
      vertex -24.5 -16.5831 -75
    endloop
  endfacet
  facet normal 0 -1 0
    outer loop
      vertex -24.5 -16.5831 75
      vertex -24.9371 -16.5831 75
      vertex -24.5 -16.5831 -75
    endloop
  endfacet
  facet normal 1 0 0
    outer loop
      vertex -24.5 -16.5831 75
      vertex -24.5 -16.5831 -75
      vertex -24.5 -2.5 -75
    endloop
  endfacet
  facet normal 1 0 0
    outer loop
      vertex -24.5 -2.5 75
      vertex -24.5 -16.5831 75
      vertex -24.5 -2.5 -75
    endloop
  endfacet
  facet normal 0 1 0
    outer loop
      vertex -24.5 -2.5 75
      vertex -24.5 -2.5 -75
      vertex -25.5 -2.5 75
    endloop
  endfacet
  facet normal 0 1 0
    outer loop
      vertex -25.5 -2.5 75
      vertex -24.5 -2.5 -75
      vertex -25.5 -2.5 -75
    endloop
  endfacet
  facet normal -1 0 0
    outer loop
      vertex -25.5 -11.4417 -75
      vertex -25.5 -11.4417 75
      vertex -25.5 -2.5 -75
    endloop
  endfacet
  facet normal -1 0 0
    outer loop
      vertex -25.5 -2.5 -75
      vertex -25.5 -11.4417 75
      vertex -25.5 -2.5 75
    endloop
  endfacet
  facet normal 0.904827 0.425779 0
    outer loop
      vertex -26.0337 -10.3075 75
      vertex -25.5 -11.4417 75
      vertex -25.5 -11.4417 -75
    endloop
  endfacet
  facet normal 0.904827 0.425779 0
    outer loop
      vertex -26.0337 -10.3075 -75
      vertex -26.0337 -10.3075 75
      vertex -25.5 -11.4417 -75
    endloop
  endfacet
  facet normal 0.951056 0.309017 0
    outer loop
      vertex -27.1203 -6.96332 75
      vertex -26.0337 -10.3075 75
      vertex -26.0337 -10.3075 -75
    endloop
  endfacet
  facet normal 0.951056 0.309017 0
    outer loop
      vertex -27.1203 -6.96332 -75
      vertex -27.1203 -6.96332 75
      vertex -26.0337 -10.3075 -75
    endloop
  endfacet
  facet normal 0.982287 0.187381 0
    outer loop
      vertex -27.7792 -3.50933 75
      vertex -27.1203 -6.96332 75
      vertex -27.1203 -6.96332 -75
    endloop
  endfacet
  facet normal 0.982287 0.187381 0
    outer loop
      vertex -27.7792 -3.50933 -75
      vertex -27.7792 -3.50933 75
      vertex -27.1203 -6.96332 -75
    endloop
  endfacet
  facet normal 0.998027 0.0627904 0
    outer loop
      vertex -28 0 75
      vertex -27.7792 -3.50933 75
      vertex -27.7792 -3.50933 -75
    endloop
  endfacet
  facet normal 0.998027 0.0627904 0
    outer loop
      vertex -28 0 -75
      vertex -28 0 75
      vertex -27.7792 -3.50933 -75
    endloop
  endfacet
  facet normal 0.998027 -0.0627904 0
    outer loop
      vertex -27.7792 3.50933 -75
      vertex -27.7792 3.50933 75
      vertex -28 0 75
    endloop
  endfacet
  facet normal 0.998027 -0.0627904 0
    outer loop
      vertex -28 0 -75
      vertex -27.7792 3.50933 -75
      vertex -28 0 75
    endloop
  endfacet
  facet normal 0.982287 -0.187381 0
    outer loop
      vertex -27.1203 6.96332 -75
      vertex -27.1203 6.96332 75
      vertex -27.7792 3.50933 75
    endloop
  endfacet
  facet normal 0.982287 -0.187381 0
    outer loop
      vertex -27.7792 3.50933 -75
      vertex -27.1203 6.96332 -75
      vertex -27.7792 3.50933 75
    endloop
  endfacet
  facet normal 0.951056 -0.309017 0
    outer loop
      vertex -26.0337 10.3075 -75
      vertex -26.0337 10.3075 75
      vertex -27.1203 6.96332 75
    endloop
  endfacet
  facet normal 0.951056 -0.309017 0
    outer loop
      vertex -27.1203 6.96332 -75
      vertex -26.0337 10.3075 -75
      vertex -27.1203 6.96332 75
    endloop
  endfacet
  facet normal 0.904827 -0.425779 0
    outer loop
      vertex -25.5 11.4417 -75
      vertex -25.5 11.4417 75
      vertex -26.0337 10.3075 75
    endloop
  endfacet
  facet normal 0.904827 -0.425779 0
    outer loop
      vertex -26.0337 10.3075 -75
      vertex -25.5 11.4417 -75
      vertex -26.0337 10.3075 75
    endloop
  endfacet
  facet normal -1 0 0
    outer loop
      vertex -25.5 2.5 -75
      vertex -25.5 2.5 75
      vertex -25.5 11.4417 -75
    endloop
  endfacet
  facet normal -1 0 0
    outer loop
      vertex -25.5 11.4417 -75
      vertex -25.5 2.5 75
      vertex -25.5 11.4417 75
    endloop
  endfacet
  facet normal 0 -1 0
    outer loop
      vertex -24.5 2.5 -75
      vertex -24.5 2.5 75
      vertex -25.5 2.5 75
    endloop
  endfacet
  facet normal 0 -1 0
    outer loop
      vertex -25.5 2.5 -75
      vertex -24.5 2.5 -75
      vertex -25.5 2.5 75
    endloop
  endfacet
  facet normal 1 0 0
    outer loop
      vertex -24.5 2.5 75
      vertex -24.5 2.5 -75
      vertex -24.5 16.5831 -75
    endloop
  endfacet
  facet normal 1 0 0
    outer loop
      vertex -24.5 16.5831 75
      vertex -24.5 2.5 75
      vertex -24.5 16.5831 -75
    endloop
  endfacet
  facet normal 0 1 0
    outer loop
      vertex -24.9371 16.5831 -75
      vertex -24.9371 16.5831 75
      vertex -24.5 16.5831 -75
    endloop
  endfacet
  facet normal 0 1 0
    outer loop
      vertex -24.5 16.5831 -75
      vertex -24.9371 16.5831 75
      vertex -24.5 16.5831 75
    endloop
  endfacet
  facet normal -0.844328 0.535827 0
    outer loop
      vertex -26.2892 14.4526 -75
      vertex -26.2892 14.4526 75
      vertex -24.9371 16.5831 -75
    endloop
  endfacet
  facet normal -0.844328 0.535827 0
    outer loop
      vertex -24.9371 16.5831 -75
      vertex -26.2892 14.4526 75
      vertex -24.9371 16.5831 75
    endloop
  endfacet
  facet normal -0.904827 0.42578 0
    outer loop
      vertex -27.8933 11.0437 -75
      vertex -27.8933 11.0437 75
      vertex -26.2892 14.4526 -75
    endloop
  endfacet
  facet normal -0.904827 0.42578 0
    outer loop
      vertex -26.2892 14.4526 -75
      vertex -27.8933 11.0437 75
      vertex -26.2892 14.4526 75
    endloop
  endfacet
  facet normal -0.951057 0.309017 0
    outer loop
      vertex -29.0575 7.4607 -75
      vertex -29.0575 7.4607 75
      vertex -27.8933 11.0437 -75
    endloop
  endfacet
  facet normal -0.951057 0.309017 0
    outer loop
      vertex -27.8933 11.0437 -75
      vertex -29.0575 7.4607 75
      vertex -27.8933 11.0437 75
    endloop
  endfacet
  facet normal -0.982287 0.187381 0
    outer loop
      vertex -29.7634 3.76 -75
      vertex -29.7634 3.76 75
      vertex -29.0575 7.4607 -75
    endloop
  endfacet
  facet normal -0.982287 0.187381 0
    outer loop
      vertex -29.0575 7.4607 -75
      vertex -29.7634 3.76 75
      vertex -29.0575 7.4607 75
    endloop
  endfacet
  facet normal 0 0 1
    outer loop
      vertex -29.7634 3.76 75
      vertex -30 0 75
      vertex -29.7634 -3.76 75
    endloop
  endfacet
  facet normal 0 0 1
    outer loop
      vertex -27.8933 -11.0437 75
      vertex -29.7634 3.76 75
      vertex -29.0575 -7.4607 75
    endloop
  endfacet
  facet normal 0 0 1
    outer loop
      vertex -29.0575 -7.4607 75
      vertex -29.7634 3.76 75
      vertex -29.7634 -3.76 75
    endloop
  endfacet
  facet normal 0 0 1
    outer loop
      vertex -26.2892 -14.4526 75
      vertex -29.7634 3.76 75
      vertex -27.8933 -11.0437 75
    endloop
  endfacet
  facet normal 0 0 1
    outer loop
      vertex -24.9371 -16.5831 75
      vertex -29.7634 3.76 75
      vertex -26.2892 -14.4526 75
    endloop
  endfacet
  facet normal 0 0 1
    outer loop
      vertex -27.1203 -6.96332 75
      vertex -29.7634 3.76 75
      vertex -24.9371 -16.5831 75
    endloop
  endfacet
  facet normal 0 0 1
    outer loop
      vertex -27.1203 -6.96332 75
      vertex -27.7792 -3.50933 75
      vertex -29.7634 3.76 75
    endloop
  endfacet
  facet normal 0 0 1
    outer loop
      vertex -24.5 -2.5 75
      vertex -25.5 -2.5 75
      vertex -24.5 -16.5831 75
    endloop
  endfacet
  facet normal 0 0 1
    outer loop
      vertex -25.5 -2.5 75
      vertex -25.5 -11.4417 75
      vertex -24.5 -16.5831 75
    endloop
  endfacet
  facet normal 0 0 1
    outer loop
      vertex -25.5 -11.4417 75
      vertex -26.0337 -10.3075 75
      vertex -24.5 -16.5831 75
    endloop
  endfacet
  facet normal 0 0 1
    outer loop
      vertex -24.5 -16.5831 75
      vertex -27.1203 -6.96332 75
      vertex -24.9371 -16.5831 75
    endloop
  endfacet
  facet normal 0 0 1
    outer loop
      vertex -27.1203 6.96332 75
      vertex -29.7634 3.76 75
      vertex -27.7792 3.50933 75
    endloop
  endfacet
  facet normal 0 0 1
    outer loop
      vertex -26.0337 10.3075 75
      vertex -29.7634 3.76 75
      vertex -27.1203 6.96332 75
    endloop
  endfacet
  facet normal 0 0 1
    outer loop
      vertex -25.5 2.5 75
      vertex -24.5 2.5 75
      vertex -25.5 11.4417 75
    endloop
  endfacet
  facet normal 0 0 1
    outer loop
      vertex -25.5 11.4417 75
      vertex -29.7634 3.76 75
      vertex -26.0337 10.3075 75
    endloop
  endfacet
  facet normal 0 0 1
    outer loop
      vertex -24.5 16.5831 75
      vertex -29.7634 3.76 75
      vertex -25.5 11.4417 75
    endloop
  endfacet
  facet normal 0 0 1
    outer loop
      vertex -24.5 16.5831 75
      vertex -25.5 11.4417 75
      vertex -24.5 2.5 75
    endloop
  endfacet
  facet normal 0 0 1
    outer loop
      vertex -24.9371 16.5831 75
      vertex -29.7634 3.76 75
      vertex -24.5 16.5831 75
    endloop
  endfacet
  facet normal 0 0 1
    outer loop
      vertex -26.2892 14.4526 75
      vertex -29.7634 3.76 75
      vertex -24.9371 16.5831 75
    endloop
  endfacet
  facet normal 0 0 1
    outer loop
      vertex -27.8933 11.0437 75
      vertex -29.7634 3.76 75
      vertex -26.2892 14.4526 75
    endloop
  endfacet
  facet normal 0 0 1
    outer loop
      vertex -29.0575 7.4607 75
      vertex -29.7634 3.76 75
      vertex -27.8933 11.0437 75
    endloop
  endfacet
  facet normal 0 0 1
    outer loop
      vertex -27.7792 -3.50933 75
      vertex -28 0 75
      vertex -29.7634 3.76 75
    endloop
  endfacet
  facet normal 0 0 1
    outer loop
      vertex -26.0337 -10.3075 75
      vertex -27.1203 -6.96332 75
      vertex -24.5 -16.5831 75
    endloop
  endfacet
  facet normal 0 0 1
    outer loop
      vertex -28 0 75
      vertex -27.7792 3.50933 75
      vertex -29.7634 3.76 75
    endloop
  endfacet
endsolid OpenSCAD_Model
